<svg viewBox="0 0 120 150" xmlns="http://www.w3.org/2000/svg" style="width:100%;height:100%;padding:6px"><rect width="100%" height="100%" fill="#0B1B2E"/>
  <path d="M35,8 L28,18 L15,30 L10,60 L12,130 L108,130 L110,60 L105,30 L92,18 L85,8" fill="none" stroke="#F5F1E6" stroke-width="1.2"/>
  <path d="M60,8 L55,30 L50,130" fill="none" stroke="#F5F1E6" stroke-width="0.8"/>
  <path d="M60,8 L65,30 L70,130" fill="none" stroke="#F5F1E6" stroke-width="0.8"/>
  <path d="M35,8 L42,8 L55,30 L60,8 L65,30 L78,8 L85,8" fill="none" stroke="#F5F1E6" stroke-width="0.8"/>
  <path d="M28,18 L42,8 L55,30 L50,50" fill="none" stroke="#F5F1E6" stroke-width="0.8"/>
  <path d="M92,18 L78,8 L65,30 L70,50" fill="none" stroke="#F5F1E6" stroke-width="0.8"/>
  <path d="M28,18 Q18,35 10,60" stroke="#D4AF37" stroke-width="2"/><path d="M92,18 Q102,35 110,60" stroke="#D4AF37" stroke-width="2"/>
</svg>